<svg width="1132" height="265" viewBox="0 0 1132 265" fill="none" xmlns="http://www.w3.org/2000/svg">
<rect width="1132" height="264.106" rx="12.1694" fill="#C7C7CC"/>
<rect x="38" y="41" width="500" height="156" rx="17.6361" fill="#EBEBF0"/>
<rect x="62" y="59" width="422" height="19" rx="5.03888" fill="#C7C7CC"/>
<rect x="65" y="84" width="174" height="19" rx="5.03888" fill="#C7C7CC"/>
<rect x="64.4541" y="146.816" width="84.4012" height="34.0124" rx="5.03888" fill="#0948B4"/>
<rect x="597" y="158" width="174.555" height="77.3027" rx="8.72773" fill="#EBEBF0"/>
<rect x="608.845" y="166.728" width="151.488" height="9.35114" rx="2.49364" fill="#C7C7CC"/>
<rect x="610.091" y="179.195" width="62.3409" height="9.35114" rx="2.49364" fill="#C7C7CC"/>
<rect x="610.091" y="210.366" width="41.7684" height="16.832" rx="2.49364" fill="#0948B4"/>
<rect x="772" y="26" width="174.555" height="77.3027" rx="8.72773" fill="#EBEBF0"/>
<rect x="783.845" y="34.7277" width="151.488" height="9.35114" rx="2.49364" fill="#C7C7CC"/>
<rect x="785.091" y="47.1953" width="62.3409" height="9.35114" rx="2.49364" fill="#C7C7CC"/>
<rect x="785.091" y="78.3663" width="41.7684" height="16.832" rx="2.49364" fill="#0948B4"/>
</svg>
