<svg width="28" height="29" viewBox="0 0 28 29" fill="none" xmlns="http://www.w3.org/2000/svg">
<g id="devicon:google" clip-path="url(#clip0_19_709)">
<path id="Vector" d="M9.7539 1.42084C6.95626 2.39137 4.54359 4.23346 2.87025 6.67653C1.19692 9.11961 0.351129 12.0349 0.457115 14.9942C0.563102 17.9535 1.61528 20.8008 3.4591 23.1179C5.30292 25.435 7.84119 27.0998 10.7011 27.8677C13.0197 28.466 15.4489 28.4923 17.7798 27.9443C19.8915 27.47 21.8437 26.4554 23.4455 24.9999C25.1125 23.4388 26.3225 21.4528 26.9455 19.2555C27.6225 16.8661 27.743 14.3532 27.2976 11.9099H14.2776V17.3108H21.818C21.6673 18.1723 21.3443 18.9944 20.8685 19.7281C20.3926 20.4618 19.7736 21.0919 19.0486 21.5808C18.1278 22.1899 17.0899 22.5997 16.0014 22.784C14.9097 22.987 13.79 22.987 12.6983 22.784C11.5918 22.5552 10.5451 22.0985 9.62483 21.443C8.14641 20.3965 7.03631 18.9097 6.45296 17.1949C5.85974 15.448 5.85974 13.554 6.45296 11.8071C6.8682 10.5826 7.55466 9.46764 8.46108 8.54553C9.49838 7.47091 10.8116 6.70277 12.2567 6.32538C13.7019 5.948 15.223 5.97594 16.6533 6.40616C17.7706 6.74914 18.7923 7.34839 19.637 8.15616C20.4872 7.31032 21.336 6.4623 22.1833 5.61209C22.6208 5.15491 23.0976 4.71959 23.5286 4.25147C22.2392 3.05157 20.7257 2.1179 19.0748 1.50397C16.0686 0.412382 12.7792 0.383047 9.7539 1.42084Z" fill="white"/>
<path id="Vector_2" d="M9.75383 1.42093C12.7788 0.382428 16.0682 0.410991 19.0748 1.50187C20.7259 2.11997 22.2387 3.05814 23.5263 4.26249C23.0888 4.73062 22.6273 5.16812 22.181 5.62312C21.3323 6.47041 20.4842 7.31478 19.6369 8.15624C18.7922 7.34848 17.7705 6.74922 16.6532 6.40624C15.2234 5.97452 13.7023 5.94496 12.2568 6.3208C10.8113 6.69665 9.49726 7.46338 8.45883 8.53687C7.5524 9.45897 6.86595 10.5739 6.4507 11.7984L1.91602 8.28749C3.53916 5.06872 6.34953 2.60661 9.75383 1.42093Z" fill="#E33629"/>
<path id="Vector_3" d="M0.71265 11.7657C0.956384 10.5578 1.36103 9.38797 1.91578 8.2876L6.45046 11.8073C5.85724 13.5542 5.85724 15.4481 6.45046 17.1951C4.93963 18.3618 3.42807 19.5343 1.91578 20.7126C0.527042 17.9483 0.103503 14.7987 0.71265 11.7657Z" fill="#F8BD00"/>
<path id="Vector_4" d="M14.2773 11.9077H27.2973C27.7427 14.351 27.6222 16.8639 26.9452 19.2533C26.3222 21.4506 25.1122 23.4366 23.4452 24.9977C21.9817 23.8558 20.5117 22.7227 19.0483 21.5808C19.7738 21.0914 20.3931 20.4606 20.869 19.7261C21.3448 18.9916 21.6675 18.1687 21.8177 17.3065H14.2773C14.2752 15.5083 14.2773 13.708 14.2773 11.9077Z" fill="#587DBD"/>
<path id="Vector_5" d="M1.91406 20.7126C3.42635 19.5459 4.93792 18.3734 6.44875 17.1951C7.03327 18.9105 8.14495 20.3973 9.625 21.4432C10.5481 22.0956 11.5971 22.5486 12.705 22.7732C13.7967 22.9762 14.9164 22.9762 16.0081 22.7732C17.0966 22.5889 18.1346 22.1791 19.0553 21.5701C20.5188 22.7119 21.9888 23.8451 23.4522 24.9869C21.8507 26.4432 19.8984 27.4586 17.7866 27.9335C15.4556 28.4815 13.0264 28.4552 10.7078 27.8569C8.87404 27.3673 7.16117 26.5042 5.67656 25.3216C4.1052 24.0741 2.82178 22.5019 1.91406 20.7126Z" fill="#319F43"/>
</g>
<defs>
<clipPath id="clip0_19_709">
<rect width="28" height="28" fill="white" transform="translate(0 0.5)"/>
</clipPath>
</defs>
</svg>
