<svg width="12" height="12" viewBox="0 0 12 12" fill="none" xmlns="http://www.w3.org/2000/svg">
<g id="tabler:clock">
<g id="Group">
<path id="Vector" d="M1.5 6C1.5 6.59095 1.6164 7.17611 1.84254 7.72208C2.06869 8.26804 2.40016 8.76412 2.81802 9.18198C3.23588 9.59984 3.73196 9.93131 4.27792 10.1575C4.82389 10.3836 5.40905 10.5 6 10.5C6.59095 10.5 7.17611 10.3836 7.72208 10.1575C8.26804 9.93131 8.76412 9.59984 9.18198 9.18198C9.59984 8.76412 9.93131 8.26804 10.1575 7.72208C10.3836 7.17611 10.5 6.59095 10.5 6C10.5 4.80653 10.0259 3.66193 9.18198 2.81802C8.33807 1.97411 7.19347 1.5 6 1.5C4.80653 1.5 3.66193 1.97411 2.81802 2.81802C1.97411 3.66193 1.5 4.80653 1.5 6Z" stroke="#8E8E93" stroke-linecap="round" stroke-linejoin="round"/>
<path id="Vector_2" d="M6 3.5V6L7.5 7.5" stroke="#8E8E93" stroke-linecap="round" stroke-linejoin="round"/>
</g>
</g>
</svg>
