<svg width="198" height="24" viewBox="0 0 198 24" fill="none" xmlns="http://www.w3.org/2000/svg">
<g id="Vector">
<path d="M4.07756 24V3.30763e-06L0 0V24L4.07756 24Z" fill="#F3BD00"/>
<path d="M8.77612 9.55415V3.30763e-06L23.7774 8.32493C23.4381 8.68068 23.0838 9.09863 22.7816 9.55415H8.77612Z" fill="#F3BD00"/>
<path d="M23.8279 15.6471C23.5563 15.3227 23.2386 14.9101 22.945 14.4459H8.77612V24L23.8279 15.6471Z" fill="#F3BD00"/>
<path d="M25.5107 9.24884L30.5524 12.0298L25.5107 14.8107C25.5107 14.8107 23.8302 13.3873 23.8302 12.0298C23.8302 10.6723 25.5107 9.24884 25.5107 9.24884Z" fill="#F3BD00"/>
<path d="M42.4496 18.1531C41.3476 18.1531 40.4878 17.8406 39.8704 17.2156C39.2607 16.5906 38.9559 15.7283 38.9559 14.6286V8.13723H37.0332V6.07234H38.9911V2.96313L41.371 1.20679V6.07234H44.4193V8.13723H41.371V14.2132C41.371 14.8461 41.5 15.3011 41.7579 15.578C42.0158 15.8469 42.3871 15.9814 42.8717 15.9814C43.3407 15.9814 43.8526 15.8549 44.4075 15.6017L44.4193 17.8209C44.1848 17.9079 43.8878 17.983 43.5282 18.0463C43.1687 18.1175 42.8092 18.1531 42.4496 18.1531Z" fill="#2E2E2E"/>
<path d="M51.3837 18.1531C50.141 18.1531 49.0859 17.8802 48.2183 17.3343C47.3507 16.7805 46.6981 16.0408 46.2604 15.1151C45.8227 14.1895 45.6038 13.1689 45.6038 12.0534C45.6038 10.9537 45.811 9.93313 46.2252 8.99167C46.6473 8.04229 47.2765 7.28279 48.1128 6.71316C48.9569 6.13563 49.9808 5.84686 51.1844 5.84686C52.4428 5.84686 53.4667 6.13958 54.2561 6.72503C55.0533 7.30257 55.6239 8.03438 55.9678 8.92046C56.3195 9.80655 56.4954 10.7203 56.4954 11.6618C56.4954 11.8833 56.4837 12.1009 56.4602 12.3145C56.4446 12.5281 56.425 12.6784 56.4016 12.7654H48.1597C48.2691 13.7623 48.5895 14.5376 49.121 15.0914C49.6603 15.6452 50.4185 15.9221 51.3955 15.9221C51.9973 15.9221 52.5405 15.8193 53.0251 15.6136C53.5175 15.4079 53.9825 15.0637 54.4202 14.5811L56.085 16.0645C55.4363 16.7765 54.729 17.3027 53.963 17.6429C53.2049 17.983 52.3451 18.1531 51.3837 18.1531ZM54.1037 10.9854C54.1193 10.7243 54.0959 10.4751 54.0334 10.2377C53.9083 9.54151 53.5957 8.9798 53.0954 8.55258C52.5952 8.12536 51.9504 7.91175 51.161 7.91175C50.2856 7.91175 49.5978 8.18865 49.0976 8.74246C48.6052 9.29626 48.2925 10.0439 48.1597 10.9854H54.1037Z" fill="#2E2E2E"/>
<path d="M63.2254 18.1531C62.053 18.1531 61.0487 17.8723 60.2123 17.3106C59.376 16.7489 58.7469 16.0012 58.3248 15.0677C57.9027 14.1341 57.6917 13.1175 57.6917 12.0178C57.6917 10.9418 57.8988 9.93313 58.3131 8.99167C58.7273 8.0502 59.3487 7.2907 60.1772 6.71316C61.0135 6.13563 62.0217 5.84686 63.202 5.84686C64.3509 5.84686 65.3552 6.13563 66.215 6.71316C67.0748 7.2907 67.7196 8.14118 68.1494 9.26461L65.8516 10.1665C65.6483 9.5336 65.3123 9.02727 64.8433 8.64752C64.3743 8.26777 63.8272 8.07789 63.202 8.07789C62.5141 8.07789 61.9397 8.26381 61.4785 8.63565C61.0252 8.99958 60.6891 9.48218 60.4703 10.0834C60.2592 10.6768 60.1537 11.3216 60.1537 12.0178C60.1537 12.7219 60.2592 13.3707 60.4703 13.964C60.6891 14.5574 61.0252 15.0321 61.4785 15.3881C61.9397 15.7441 62.5141 15.9221 63.202 15.9221C63.835 15.9221 64.3822 15.7362 64.8433 15.3644C65.3123 14.9925 65.6405 14.4941 65.8281 13.8691L68.0322 14.7117C67.6492 15.7955 67.0357 16.642 66.1916 17.2512C65.3474 17.8525 64.3587 18.1531 63.2254 18.1531Z" fill="#2E2E2E"/>
<path d="M70.0609 1.15932H72.523V7.66254C72.9372 7.06127 73.4491 6.61032 74.0588 6.30968C74.6684 6.00113 75.3132 5.84686 75.9932 5.84686C76.9312 5.84686 77.7167 6.06838 78.3497 6.51142C78.9907 6.95446 79.4635 7.53991 79.7683 8.26777C80.0732 8.99562 80.2295 9.79864 80.2373 10.6768V17.9277H77.7753V11.0447C77.7753 10.1191 77.5955 9.39515 77.236 8.87299C76.8764 8.34293 76.2668 8.07789 75.407 8.07789C74.7896 8.07789 74.262 8.23217 73.8243 8.54071C73.3944 8.84926 73.0701 9.27648 72.8512 9.82237C72.6324 10.3603 72.523 10.9774 72.523 11.6737V17.9277H70.0609V1.15932Z" fill="#2E2E2E"/>
<path d="M83.1336 6.07234H85.6308V7.73374C86.0138 7.12456 86.5257 6.65778 87.1666 6.33342C87.8154 6.00905 88.511 5.84686 89.2535 5.84686C90.2852 5.84686 91.1801 6.12376 91.9383 6.67756C92.6964 7.23137 93.2709 7.979 93.6617 8.92046C94.0603 9.85402 94.2596 10.8825 94.2596 12.0059C94.2596 13.1294 94.0603 14.1618 93.6617 15.1033C93.2709 16.0368 92.6925 16.7805 91.9265 17.3343C91.1684 17.8802 90.2656 18.1531 89.2183 18.1531C88.4758 18.1531 87.788 17.9949 87.1549 17.6785C86.5218 17.3541 86.0138 16.8834 85.6308 16.2663V22.8407H83.1336V6.07234ZM88.6556 15.9221C89.3434 15.9221 89.9218 15.752 90.3907 15.4118C90.8675 15.0716 91.2231 14.6048 91.4576 14.0115C91.6921 13.4181 91.8093 12.7496 91.8093 12.0059C91.8093 11.2543 91.6921 10.5858 91.4576 10.0004C91.2231 9.41493 90.8675 8.95606 90.3907 8.62378C89.9218 8.28359 89.3434 8.11349 88.6556 8.11349C87.9678 8.11349 87.3776 8.28359 86.8852 8.62378C86.4007 8.95606 86.0333 9.41493 85.7832 10.0004C85.5331 10.5858 85.408 11.2543 85.408 12.0059C85.408 12.7496 85.5331 13.4181 85.7832 14.0115C86.0333 14.6048 86.4007 15.0716 86.8852 15.4118C87.3776 15.752 87.9678 15.9221 88.6556 15.9221Z" fill="#2E2E2E"/>
<path d="M100.708 5.84686C101.732 5.84686 102.615 6.0486 103.358 6.45209C104.1 6.85557 104.667 7.4252 105.058 8.16096C105.449 8.88882 105.644 9.7393 105.644 10.7124V17.9277H103.639L103.475 16.0764C103.1 16.7409 102.557 17.2552 101.845 17.6191C101.142 17.9751 100.403 18.1531 99.6296 18.1531C98.8246 18.1531 98.1055 18.0028 97.4724 17.7022C96.8393 17.4016 96.343 16.9664 95.9835 16.3968C95.624 15.8193 95.4442 15.1389 95.4442 14.3556C95.4442 13.1531 95.8663 12.2828 96.7104 11.7449C97.5545 11.2069 98.7113 10.9379 100.181 10.9379H103.44C103.424 10.2338 103.33 9.67205 103.159 9.25274C102.987 8.82553 102.705 8.50907 102.314 8.30337C101.931 8.09767 101.4 7.99482 100.72 7.99482C100.056 7.99482 99.4733 8.15305 98.9731 8.46951C98.4807 8.78597 98.0743 9.21319 97.7538 9.75117L95.9014 8.39831C96.4954 7.5676 97.1754 6.93469 97.9414 6.49956C98.7152 6.06443 99.6375 5.84686 100.708 5.84686ZM100.11 16.0645C100.72 16.0645 101.259 15.93 101.728 15.661C102.205 15.392 102.588 15.0321 102.877 14.5811C103.166 14.1302 103.354 13.6317 103.44 13.0858V12.718H100.321C99.5398 12.718 98.9457 12.8762 98.5393 13.1927C98.1329 13.5012 97.9297 13.9126 97.9297 14.4268C97.9297 14.9253 98.1172 15.3248 98.4924 15.6254C98.8676 15.9182 99.4069 16.0645 100.11 16.0645Z" fill="#2E2E2E"/>
<path d="M112.632 5.84686C113.656 5.84686 114.539 6.0486 115.282 6.45209C116.024 6.85557 116.591 7.4252 116.982 8.16096C117.372 8.88882 117.568 9.7393 117.568 10.7124V17.9277H115.563L115.399 16.0764C115.024 16.7409 114.48 17.2552 113.769 17.6191C113.066 17.9751 112.327 18.1531 111.553 18.1531C110.748 18.1531 110.029 18.0028 109.396 17.7022C108.763 17.4016 108.267 16.9664 107.907 16.3968C107.548 15.8193 107.368 15.1389 107.368 14.3556C107.368 13.1531 107.79 12.2828 108.634 11.7449C109.478 11.2069 110.635 10.9379 112.104 10.9379H115.364C115.348 10.2338 115.254 9.67205 115.082 9.25274C114.91 8.82553 114.629 8.50907 114.238 8.30337C113.855 8.09767 113.324 7.99482 112.644 7.99482C111.979 7.99482 111.397 8.15305 110.897 8.46951C110.404 8.78597 109.998 9.21319 109.678 9.75117L107.825 8.39831C108.419 7.5676 109.099 6.93469 109.865 6.49956C110.639 6.06443 111.561 5.84686 112.632 5.84686ZM112.034 16.0645C112.644 16.0645 113.183 15.93 113.652 15.661C114.129 15.392 114.512 15.0321 114.801 14.5811C115.09 14.1302 115.278 13.6317 115.364 13.0858V12.718H112.245C111.463 12.718 110.869 12.8762 110.463 13.1927C110.057 13.5012 109.853 13.9126 109.853 14.4268C109.853 14.9253 110.041 15.3248 110.416 15.6254C110.791 15.9182 111.331 16.0645 112.034 16.0645Z" fill="#2E2E2E"/>
<path d="M124.298 18.1531C123.196 18.1531 122.336 17.8406 121.718 17.2156C121.109 16.5906 120.804 15.7283 120.804 14.6286V8.13723H118.881V6.07234H120.839V2.96313L123.219 1.20679V6.07234H126.267V8.13723H123.219V14.2132C123.219 14.8461 123.348 15.3011 123.606 15.578C123.864 15.8469 124.235 15.9814 124.72 15.9814C125.189 15.9814 125.701 15.8549 126.256 15.6017L126.267 17.8209C126.033 17.9079 125.736 17.983 125.376 18.0463C125.017 18.1175 124.657 18.1531 124.298 18.1531Z" fill="#2E2E2E"/>
<path d="M128.108 1.15932H130.571V7.66254C130.985 7.06127 131.497 6.61032 132.106 6.30968C132.716 6.00113 133.361 5.84686 134.041 5.84686C134.979 5.84686 135.764 6.06838 136.397 6.51142C137.038 6.95446 137.511 7.53991 137.816 8.26777C138.121 8.99562 138.277 9.79864 138.285 10.6768V17.9277H135.823V11.0447C135.823 10.1191 135.643 9.39515 135.284 8.87299C134.924 8.34293 134.314 8.07789 133.455 8.07789C132.837 8.07789 132.31 8.23217 131.872 8.54071C131.442 8.84926 131.118 9.27648 130.899 9.82237C130.68 10.3603 130.571 10.9774 130.571 11.6737V17.9277H128.108V1.15932Z" fill="#2E2E2E"/>
<path d="M144.663 18.1531C143.882 18.1531 143.155 18.0107 142.483 17.7259C141.818 17.4332 141.252 17.0416 140.783 16.5511C140.321 16.0526 139.993 15.4988 139.798 14.8897L141.744 14.0234C141.955 14.6088 142.287 15.1033 142.74 15.5068C143.194 15.9023 143.796 16.1001 144.546 16.1001C145.015 16.1001 145.41 16.021 145.73 15.8628C146.058 15.7045 146.305 15.4988 146.469 15.2457C146.633 14.9925 146.715 14.7235 146.715 14.4387C146.715 14.1143 146.609 13.8533 146.398 13.6555C146.187 13.4498 145.922 13.2876 145.601 13.1689C145.281 13.0502 144.835 12.9158 144.265 12.7654C143.475 12.5597 142.83 12.354 142.33 12.1483C141.838 11.9347 141.412 11.6104 141.052 11.1752C140.7 10.7322 140.525 10.1388 140.525 9.39515C140.525 8.63565 140.716 7.99087 141.099 7.4608C141.482 6.92282 141.994 6.51933 142.635 6.25034C143.276 5.98135 143.983 5.84686 144.757 5.84686C145.726 5.84686 146.582 6.06838 147.325 6.51142C148.067 6.95446 148.657 7.57947 149.095 8.38644L147.219 9.41889C146.633 8.33501 145.785 7.79308 144.675 7.79308C144.12 7.79308 143.674 7.91571 143.338 8.16096C143.01 8.39831 142.846 8.7029 142.846 9.07474C142.846 9.35164 142.944 9.58503 143.139 9.7749C143.342 9.95687 143.596 10.1072 143.901 10.2259C144.206 10.3366 144.624 10.4672 145.156 10.6175C145.976 10.8469 146.648 11.0803 147.172 11.3176C147.696 11.5471 148.145 11.9031 148.52 12.3857C148.903 12.8683 149.095 13.5131 149.095 14.32C149.095 15.1587 148.888 15.8667 148.473 16.4443C148.059 17.0139 147.516 17.4411 146.844 17.7259C146.172 18.0107 145.445 18.1531 144.663 18.1531Z" fill="#2E2E2E"/>
<path d="M151.44 1.15932H153.902V7.66254C154.316 7.06127 154.828 6.61032 155.438 6.30968C156.048 6.00113 156.692 5.84686 157.372 5.84686C158.31 5.84686 159.096 6.06838 159.729 6.51142C160.37 6.95446 160.843 7.53991 161.148 8.26777C161.452 8.99562 161.609 9.79864 161.616 10.6768V17.9277H159.154V11.0447C159.154 10.1191 158.975 9.39515 158.615 8.87299C158.256 8.34293 157.646 8.07789 156.786 8.07789C156.169 8.07789 155.641 8.23217 155.203 8.54071C154.774 8.84926 154.449 9.27648 154.23 9.82237C154.012 10.3603 153.902 10.9774 153.902 11.6737V17.9277H151.44V1.15932Z" fill="#2E2E2E"/>
<path d="M168.686 5.84686C169.71 5.84686 170.594 6.0486 171.336 6.45209C172.079 6.85557 172.645 7.4252 173.036 8.16096C173.427 8.88882 173.622 9.7393 173.622 10.7124V17.9277H171.617L171.453 16.0764C171.078 16.7409 170.535 17.2552 169.824 17.6191C169.12 17.9751 168.382 18.1531 167.608 18.1531C166.803 18.1531 166.084 18.0028 165.451 17.7022C164.818 17.4016 164.321 16.9664 163.962 16.3968C163.602 15.8193 163.422 15.1389 163.422 14.3556C163.422 13.1531 163.844 12.2828 164.689 11.7449C165.533 11.2069 166.689 10.9379 168.159 10.9379H171.418C171.403 10.2338 171.309 9.67205 171.137 9.25274C170.965 8.82553 170.683 8.50907 170.293 8.30337C169.91 8.09767 169.378 7.99482 168.698 7.99482C168.034 7.99482 167.452 8.15305 166.951 8.46951C166.459 8.78597 166.052 9.21319 165.732 9.75117L163.88 8.39831C164.474 7.5676 165.154 6.93469 165.92 6.49956C166.693 6.06443 167.616 5.84686 168.686 5.84686ZM168.089 16.0645C168.698 16.0645 169.237 15.93 169.706 15.661C170.183 15.392 170.566 15.0321 170.855 14.5811C171.145 14.1302 171.332 13.6317 171.418 13.0858V12.718H168.3C167.518 12.718 166.924 12.8762 166.518 13.1927C166.111 13.5012 165.908 13.9126 165.908 14.4268C165.908 14.9253 166.095 15.3248 166.471 15.6254C166.846 15.9182 167.385 16.0645 168.089 16.0645Z" fill="#2E2E2E"/>
<path d="M178.77 18.1531C178.004 18.1531 177.417 17.9514 177.011 17.5479C176.612 17.1365 176.413 16.4601 176.413 15.5186V1.15932H178.828V14.8541C178.828 15.2101 178.91 15.483 179.074 15.6729C179.238 15.8549 179.508 15.9458 179.883 15.9458C180.079 15.9458 180.36 15.9182 180.727 15.8628L180.739 17.9277C180.012 18.078 179.356 18.1531 178.77 18.1531Z" fill="#2E2E2E"/>
<path d="M186.766 5.84686C187.79 5.84686 188.673 6.0486 189.415 6.45209C190.158 6.85557 190.725 7.4252 191.115 8.16096C191.506 8.88882 191.701 9.7393 191.701 10.7124V17.9277H189.697L189.533 16.0764C189.157 16.7409 188.614 17.2552 187.903 17.6191C187.2 17.9751 186.461 18.1531 185.687 18.1531C184.882 18.1531 184.163 18.0028 183.53 17.7022C182.897 17.4016 182.401 16.9664 182.041 16.3968C181.681 15.8193 181.502 15.1389 181.502 14.3556C181.502 13.1531 181.924 12.2828 182.768 11.7449C183.612 11.2069 184.769 10.9379 186.238 10.9379H189.497C189.482 10.2338 189.388 9.67205 189.216 9.25274C189.044 8.82553 188.763 8.50907 188.372 8.30337C187.989 8.09767 187.457 7.99482 186.777 7.99482C186.113 7.99482 185.531 8.15305 185.031 8.46951C184.538 8.78597 184.132 9.21319 183.811 9.75117L181.959 8.39831C182.553 7.5676 183.233 6.93469 183.999 6.49956C184.773 6.06443 185.695 5.84686 186.766 5.84686ZM186.168 16.0645C186.777 16.0645 187.317 15.93 187.786 15.661C188.262 15.392 188.645 15.0321 188.935 14.5811C189.224 14.1302 189.411 13.6317 189.497 13.0858V12.718H186.379C185.597 12.718 185.003 12.8762 184.597 13.1927C184.19 13.5012 183.987 13.9126 183.987 14.4268C183.987 14.9253 184.175 15.3248 184.55 15.6254C184.925 15.9182 185.464 16.0645 186.168 16.0645Z" fill="#2E2E2E"/>
<path d="M193.702 17.2208C193.702 16.9394 193.75 16.6774 193.847 16.4348C193.952 16.1825 194.092 15.9642 194.265 15.7798C194.448 15.5954 194.66 15.4499 194.9 15.3432C195.15 15.2364 195.415 15.183 195.694 15.183C195.973 15.183 196.233 15.2364 196.473 15.3432C196.723 15.4499 196.94 15.5954 197.123 15.7798C197.305 15.9642 197.45 16.1825 197.556 16.4348C197.661 16.6774 197.714 16.9394 197.714 17.2208C197.714 17.5119 197.661 17.7788 197.556 18.0213C197.45 18.2639 197.305 18.4774 197.123 18.6618C196.94 18.8461 196.723 18.9868 196.473 19.0839C196.233 19.1906 195.973 19.244 195.694 19.244C195.415 19.244 195.15 19.1906 194.9 19.0839C194.66 18.9868 194.448 18.8461 194.265 18.6618C194.092 18.4774 193.952 18.2639 193.847 18.0213C193.75 17.7788 193.702 17.5119 193.702 17.2208Z" fill="#F3BD00"/>
</g>
</svg>
